<svg xmlns="http://www.w3.org/2000/svg" width="512" height="512"><path d="M440.371 497H403.77l3.999-144.472c.625-22.605-12.322-43.149-32.985-52.338l-42.677-18.979a7.565 7.565 0 0 0-.782-.294l-6.025-5.147c30.448-9.235 53.217-20.539 54.296-21.078 3.687-1.843 5.183-6.34 3.366-10.039-.153-.311-15.252-31.853-15.252-100.879v-32.065C367.71 50.112 317.597 0 256 0S144.291 50.112 144.291 111.709v32.065c0 69.026-15.1 100.568-15.24 100.855a7.5 7.5 0 0 0 3.354 10.063c1.087.543 23.853 11.847 54.294 21.08l-6.84 5.843-41.77 18.576c-20.663 9.188-33.61 29.732-32.985 52.338L109.103 497H71.629a7.5 7.5 0 0 0 0 15h368.742a7.5 7.5 0 0 0 0-15zM159.289 111.711C159.291 58.384 202.674 15 256 15s96.71 43.384 96.71 96.709v32.065c0 54.793 9.072 87.118 13.901 100.442-9.976 4.512-30.807 13.306-54.979 19.879l-2.664-2.275a7.498 7.498 0 0 0-5.387-1.769v-18.647a87.6 87.6 0 0 0 32.545-38.168c4.123-9.337 6.441-19.712 6.705-30.003.867-33.826-28.153-42.394-58.878-51.465-25.739-7.599-54.913-16.211-78.836-39.482a7.5 7.5 0 0 0-10.459 10.752c26.581 25.855 59 35.426 85.048 43.117 32.892 9.71 48.678 15.326 48.13 36.693-.214 8.354-2.092 16.767-5.432 24.33-11.615 26.308-37.681 43.307-66.404 43.307-35.029 0-65.045-24.999-71.372-59.441-1.414-7.7-8.543-13.288-16.222-12.726a8.431 8.431 0 0 1-2.563-.216c-3.735-.884-6.553-4.902-6.553-9.346v-6.152c0-4.553 2.979-8.509 6.93-9.202 3.255-.572 6.384.628 8.364 3.21 1.436 1.872 3.348 3.21 5.529 3.869 3.195.965 6.719.4 9.429-1.513 6.56-4.63 12.121-10.504 16.527-17.458a7.5 7.5 0 0 0-12.67-8.03c-2.681 4.231-5.911 7.927-9.629 11.024-5.354-4.947-12.757-7.173-20.144-5.877a22.466 22.466 0 0 0-4.337 1.229v-18.145zm64.129 164.543v-27.062a87.366 87.366 0 0 0 65.162-.021v27.082l-22.637 31.481c-.026.036-.047.075-.073.112-.025.036-.054.069-.079.106l-9.362 14.043c-.054.081-.153.23-.43.23s-.376-.149-.43-.23l-9.362-14.043c-.025-.037-.054-.07-.079-.106-.026-.037-.046-.076-.073-.112l-22.637-31.48zm6.169 34.269l-10.815 8.111a8.509 8.509 0 0 1-7.08 1.479 8.51 8.51 0 0 1-5.671-4.488l-12.833-25.668 13.387-11.436 23.012 32.002zm75.839-32.002l13.388 11.436-12.834 25.668a8.51 8.51 0 0 1-5.671 4.488 8.512 8.512 0 0 1-7.08-1.478l-10.815-8.112 23.012-32.002zm-160.037-34.304c3.611-9.962 9.592-30.551 12.381-63.206a21.827 21.827 0 0 0 4.618 1.687c2.327.55 4.69.748 7.022.586.173.07.424.323.465.469 4.489 24.44 18.869 44.93 38.544 57.673v18.625a7.496 7.496 0 0 0-5.387 1.769l-2.663 2.275c-24.174-6.574-45.006-15.367-54.98-19.878zm-1.206 69.679l36.162-16.082 12.259 24.519a23.47 23.47 0 0 0 15.641 12.378 23.475 23.475 0 0 0 19.527-4.076l10.354-7.766 4.965 7.447a15.483 15.483 0 0 0 12.91 6.91c5.2 0 10.026-2.583 12.91-6.91l4.964-7.447 10.354 7.766a23.475 23.475 0 0 0 19.527 4.076 23.468 23.468 0 0 0 15.641-12.378l12.418-24.836 36.876 16.399a40.875 40.875 0 0 1 8.034 4.735l-27.262 34.078h-186.05l-27.263-34.078a40.936 40.936 0 0 1 8.033-4.735zm-6.955 63.651l6.235 112.225c.141 2.543.689 4.97 1.568 7.228H124.11l-4.012-144.887a40.534 40.534 0 0 1 5.864-22.204l21.516 26.894a23.375 23.375 0 0 0-3.85 3.267 23.625 23.625 0 0 0-6.4 17.477zm222.57-.831l-6.235 112.226a8.535 8.535 0 0 1-8.519 8.059H166.957V497a8.535 8.535 0 0 1-8.519-8.059l-6.235-112.226a8.454 8.454 0 0 1 2.321-6.336 8.452 8.452 0 0 1 6.198-2.668h190.557c2.369 0 4.57.947 6.198 2.668s2.452 3.971 2.321 6.337zM388.764 497h-21.793a23.471 23.471 0 0 0 1.568-7.227l6.235-112.225a23.634 23.634 0 0 0-6.4-17.478 23.416 23.416 0 0 0-3.292-2.874l21.83-27.288a40.55 40.55 0 0 1 5.863 22.205L388.764 497z" fill="#e20023"/><path d="M256 408.822c-15.186 0-27.541 12.354-27.541 27.541 0 15.187 12.354 27.541 27.541 27.541s27.541-12.354 27.541-27.541-12.355-27.541-27.541-27.541zm0 40.081c-6.915 0-12.541-5.626-12.541-12.541s5.625-12.541 12.541-12.541 12.541 5.626 12.541 12.541-5.626 12.541-12.541 12.541z" fill="#e20023"/></svg>