<svg xmlns="http://www.w3.org/2000/svg" width="234.595" height="106.25"><defs><clipPath id="a"><path d="M0 85h187.676V0H0v85z"/></clipPath></defs><g clip-path="url(#a)" transform="matrix(1.25 0 0 -1.25 0 106.25)"><path d="M97.133 56.133c1.305-6.856.435-14.344-3.382-20.187-3.817-5.842-9.956-10.121-16.76-11.681-1.415 10.715 2.97 22.02 11.239 28.979 2.34 1.97 5.91 3.533 8.903 2.889" fill="#e30024"/><path d="M96.48 55.71c.896-6.494-.449-13.193-3.996-18.737-1.765-2.76-3.965-5.346-6.58-7.334a22.29 22.29 0 0 0-5.387-2.999c-1.036-.405-4.738-2.095-5.535-.953-.497.712-.062 3.512-.004 4.354.1 1.448.3 2.89.592 4.312a33.535 33.535 0 0 0 3.13 8.732 32.198 32.198 0 0 0 5.812 7.906C87.323 53.784 91.13 56.875 95.36 56c.17-.035.548.325.425.35-6.21 1.287-12.079-5.156-15.262-9.675-4.469-6.342-6.617-14.128-5.98-21.858.006-.064.074-.06.122-.052 7.027 1.301 12.681 4.72 16.961 10.456a28.156 28.156 0 0 1 5.346 20.74c-.023.168-.513-.09-.49-.25"/><path d="M94.265 56.33c.373-.02.75-.068 1.133-.147a.267.267 0 0 1 .068.036 8.067 8.067 0 0 1-1.201.11m2.406-.627a28.43 28.43 0 0 0-1.006-12.331 27.904 27.904 0 0 1 1.14 12.426.491.491 0 0 1-.134-.095M76.823 39.349a33.071 33.071 0 0 1-2.19-10.893c.028.307.06.62.093.935.03.273.054.504.065.663.1 1.445.3 2.905.596 4.338.348 1.68.828 3.337 1.436 4.957m-2.168-13.343c.016-.347.037-.693.064-1.04.29.055.577.113.862.174-.327.06-.584.2-.752.44a1.271 1.271 0 0 0-.174.426m-.036-1.434a.275.275 0 0 0-.17.053.247.247 0 0 0-.093.176c-.64 7.764 1.496 15.57 6.013 21.982 2.974 4.22 8.934 11.1 15.454 9.75a.214.214 0 0 0 .168-.258c-.04-.19-.421-.51-.67-.46-4.168.865-7.896-2.195-10.676-4.956a31.901 31.901 0 0 1-5.778-7.86 33.296 33.296 0 0 1-3.112-8.683 32.264 32.264 0 0 1-.59-4.287c-.011-.163-.036-.4-.065-.678-.114-1.061-.325-3.038.037-3.556.627-.898 3.732.374 4.9.853.164.067.303.124.413.167a22.103 22.103 0 0 1 5.34 2.974c2.423 1.842 4.623 4.293 6.537 7.285 3.467 5.42 4.876 12.03 3.968 18.61-.036.264.337.486.544.515.196.028.302-.092.319-.213 1.026-7.437-.885-14.851-5.382-20.878-4.291-5.75-9.877-9.194-17.077-10.528a.461.461 0 0 0-.08-.008"/><path d="M96 56.552l-.016.003c-3.732-9.737-9.825-18.714-17.048-26.175-.205-.212.33-.104.432.002 7.22 7.457 13.32 16.417 17.078 26.14a4.824 4.824 0 0 0-.445.03"/><path d="M96.107 56.353c-1.69-4.377-3.896-8.702-6.556-12.874 2.684 4.17 4.916 8.494 6.626 12.868l-.07.006M78.992 30.072c-.09 0-.17.02-.223.073-.017.016-.161.167.032.366 7.58 7.829 13.46 16.859 17.007 26.11a.19.19 0 0 0 .198.12l.019-.002c.145-.017.288-.027.425-.03a.188.188 0 0 0 .171-.255c-3.585-9.278-9.504-18.338-17.118-26.202-.08-.081-.315-.18-.511-.18"/><path d="M107.207.697c-3.186.654-10.288 2.975-13.073 4.655-2.786 1.68-5.911 4.75-6.128 7.995-.217 3.246 3.016 7.5 6.268 7.561 2.944.055 4.56-1.146 6.314-3.398-.516 2.997.113 5.14 2.307 7.366 1.695 1.72 4.828 2.276 7.113 1.498 3.056-1.04 4.52-5.657 4.424-8.884-.185-6.16-3.824-11.929-7.225-16.793" fill="#e30024"/><path d="M105.06.662c-3.066.67-6.065 1.821-8.928 3.09-3.002 1.33-5.872 3.014-7.823 5.738-2.17 3.028-1.897 6.531.776 9.194 1.893 1.886 4.732 2.717 7.112 1.23 1.411-.884 2.325-2.398 3.126-3.812.082-.145.593.067.528.21-1.759 3.817.422 8.753 4.364 10.233 4.366 1.64 7.011-2.375 7.838-6.058 1.525-6.8-2.39-14.22-5.773-19.821-.109-.18.418-.058.498.073 3.924 6.495 9.734 17.81 3.525 24.727-2.125 2.367-5.32 2.089-7.794.439-3.136-2.093-4.81-6.276-3.186-9.802l.528.209c-1.69 2.982-4.262 5.622-7.982 4.425-2.829-.91-5.413-3.834-5.634-6.844-.296-4.028 3.687-7.441 6.871-9.172 3.551-1.93 7.592-3.482 11.54-4.345.147-.032.614.243.414.287"/><path d="M104.657 0a.425.425 0 0 0-.09.009c-3.916.856-7.94 2.371-11.64 4.382-3.61 1.962-7.363 5.496-7.066 9.529.222 3.031 2.811 6.182 5.893 7.174 2.44.785 4.64.12 6.564-1.978.034 2.702 1.478 5.429 3.983 7.101 2.976 1.985 6.226 1.789 8.282-.501 2.808-3.129 3.521-7.457 2.12-12.866-.924-3.568-2.757-7.593-5.604-12.305-.16-.266-.588-.34-.753-.345a.452.452 0 0 0-.406.224.435.435 0 0 0 .018.436c3.647 6.035 7.18 13.078 5.728 19.545-.593 2.645-1.93 4.757-3.58 5.647-1.126.609-2.39.657-3.759.143-1.84-.692-3.357-2.21-4.16-4.165-.767-1.864-.765-3.891.005-5.562.095-.206.032-.495-.32-.677-.363-.185-.719-.136-.87.117l-.008.013c-.833 1.47-1.689 2.857-2.996 3.674-2.32 1.451-5.01.454-6.648-1.177-2.549-2.539-2.824-5.795-.736-8.71 2.06-2.877 5.181-4.511 7.67-5.613 3.435-1.522 6.25-2.496 8.856-3.066.241-.053.385-.265.334-.495-.067-.308-.527-.534-.817-.534"/><path d="M139.1 27.106c-2.972-1.324-10.098-3.57-13.34-3.827-3.243-.255-7.57.422-9.637 2.934-2.066 2.512-1.914 7.853.694 9.796 2.362 1.76 4.376 1.724 7.112.914-2.165 2.136-2.9 4.243-2.412 7.332.376 2.384 2.6 4.661 4.911 5.358 3.091.933 6.968-1.967 8.768-4.647 3.436-5.116 3.836-11.925 3.903-17.86" fill="#e30024"/><path d="M137.248 25.697c-5.327-2.291-12.657-4.452-18.37-2.612-3.714 1.196-5.54 4.262-4.881 8.126.405 2.373 1.803 4.775 4.488 5.167 1.788.261 3.565-.494 5.146-1.226.14-.065.622.181.488.257-3.153 1.796-4.303 5.767-3.241 9.151.912 2.907 3.603 4.928 6.709 3.893 1.429-.476 2.735-1.338 3.85-2.336 5.202-4.655 6.332-12.952 6.845-19.506.009-.121.542.023.528.209-.59 7.534-2.466 20.12-11.541 22.122-7.737 1.708-9.58-10.405-3.638-13.79l.488.257c-2.677 1.24-5.65 2.03-8.2.076-2.905-2.23-3.538-7.469-1.242-10.329 2.48-3.088 7.503-3.339 11.1-2.822 3.906.561 7.926 1.591 11.554 3.152.305.131.229.345-.083.211"/><path d="M122.889 21.756c-2.73 0-6.405.552-8.504 3.166-1.157 1.44-1.671 3.51-1.41 5.68.262 2.169 1.252 4.057 2.717 5.18 1.794 1.377 3.747 1.464 5.572 1.05-1.711 2.452-1.916 5.95-.908 8.569 1.21 3.146 3.825 4.607 6.994 3.908 4.105-.905 7.207-4.007 9.222-9.218 1.33-3.44 2.184-7.772 2.612-13.241.032-.41-.42-.63-.752-.656-.338-.025-.508.183-.524.388-.551 7.04-1.78 14.835-6.721 19.256-1.206 1.078-2.457 1.839-3.718 2.259-1.211.404-2.421.326-3.5-.225-1.255-.642-2.251-1.89-2.733-3.424-1.073-3.423.216-7.087 3.067-8.711l.007-.004a.413.413 0 0 0 .159-.553c-.138-.268-.676-.505-.985-.373l-.011.005c-1.59.737-3.281 1.436-4.934 1.194-3.181-.464-3.997-3.836-4.171-4.858-.63-3.69 1.1-6.57 4.626-7.706 5.7-1.836 12.993.4 18.106 2.6.328.14.532.047.624-.022a.433.433 0 0 0 .173-.403c-.013-.116-.086-.333-.417-.476-3.437-1.478-7.465-2.577-11.65-3.178a21.145 21.145 0 0 0-2.941-.207m-26.29 34.769c-.183-.002-.267-.313-.454-.293-1.09-3.514-2.041-6.466-3.086-11.287-1.868-8.615 1.215-18.134 4.788-26.219.06-.135.563.126.493.284-3.483 7.877-6.892 17.125-4.792 25.454 1.273 5.046 2.069 8.412 3.05 12.061"/><path d="M97.926 18.313a.452.452 0 0 0-.422.26c-3.037 6.874-6.84 17.093-4.812 26.45.974 4.493 1.849 7.31 2.862 10.57l.324 1.045.212-.023a.106.106 0 0 0 .01.012c.084.095.24.27.495.273l.495.006-.13-.478c-.647-2.412-1.225-4.74-1.894-7.434-.347-1.4-.723-2.914-1.154-4.621-2.034-8.068 1.09-16.886 4.77-25.212.127-.285-.057-.603-.445-.774a.761.761 0 0 0-.311-.074m-.666 38.274c.031-.466.085-.93.166-1.387-.038.467-.047.94-.028 1.42-.046-.011-.092-.024-.138-.033"/><path d="M97.057 55.135c-.08.455-.138.935-.172 1.426l-.022.332.326.063c.023.004.047.01.07.016l.533.126-.02-.493c-.018-.467-.01-.93.029-1.373l-.744-.097zm22.704-16.765c-4.502.283-9.746 2.056-14.025 4.895 4.176-3.077 9.254-5.066 13.707-5.345.17-.01.462.441.318.45"/><path d="M119.45 37.545l-.03.001c-4.484.281-9.682 2.305-13.906 5.416l.43.615c4.133-2.742 9.308-4.548 13.84-4.832a.41.41 0 0 0 .347-.227c.083-.167.05-.362-.094-.58-.08-.12-.293-.393-.587-.393"/><path d="M97.427 55.2c.406-4.821 3.827-8.963 8.309-11.936-4.197 3.091-7.485 7.279-8.31 11.936"/><path d="M105.528 42.951c-5.087 3.374-8.097 7.712-8.476 12.217l.744.097c.747-4.219 3.646-8.373 8.162-11.699l-.43-.615z"/><path d="M2.342 56.261c-1.107 1.41-1.81 3.052-2.147 4.83-.335 1.845-.234 3.79.27 5.836 1.374 5.367 4.225 10.264 7.982 13.786 1.643 1.543 3.421 2.717 5.098 3.455 1.744.772 3.354 1.006 4.696.705 1.41-.336 2.45-1.208 2.985-2.583.537-1.308.604-3.053.168-5.166-.134-.536-.637-.905-1.207-.77-.537.1-.873.636-.772 1.173.37 1.777.637 4.863-1.61 5.366-.906.202-2.147 0-3.455-.57-1.476-.637-3.052-1.71-4.528-3.086-3.488-3.253-6.105-7.815-7.413-12.813-.872-3.42-.335-6.507 1.51-8.922 2.113-2.717 5.802-4.26 10.13-4.26 8.385 0 14.993 1.107 19.018 2.046 4.394 1.007 6.842 2.046 6.842 2.046.537.235 1.107 0 1.342-.536.201-.503-.033-1.107-.537-1.309-.1-.033-2.583-1.106-7.11-2.146-6.675-1.51-13.149-2.113-19.556-2.113-4.528.067-8.922 1.51-11.706 5.031" fill="#e30024"/><path d="M19.044 59.783c-.503.201-.738.704-.57 1.208.033.134 4.193 13.45 7.748 21.567.235.503.805.738 1.308.537.537-.235.772-.839.537-1.342-1.71-3.891-3.555-9.023-5.03-13.282.837 1.173 1.61 2.146 2.313 2.918 1.342 1.475 2.45 2.18 3.455 2.18.805 0 1.241-.369 1.476-.671.771-1.006.37-2.583-.269-5.232a15.944 15.944 0 0 1-.335-1.342c-.336-1.308-.537-2.281-.637-3.086-.1-.973.033-1.275.1-1.375.101-.101.403-.134.57-.134.772 0 1.946.872 3.22 2.415 1.074 1.341 1.845 2.683 1.845 2.716.27.47.872.638 1.376.37.47-.269.637-.873.368-1.376a21.8 21.8 0 0 0-2.012-2.951c-.704-.873-1.409-1.577-2.08-2.08-.939-.738-1.878-1.107-2.717-1.107-.939 0-1.677.302-2.146.906-1.04 1.308-.47 3.555.134 6.171l.37 1.376c.234.972.435 1.777.536 2.448.1.47.1.772.1.906-.369-.101-1.778-.805-4.863-5.468-1.946-2.884-3.522-5.802-3.522-5.836-.202-.335-.537-.537-.906-.537a.679.679 0 0 0-.369.101" fill="#e30024"/><path d="M48.09 74.206c-.1-.268-.302-1.24.838-2.28l.168-.1c.101.904.067 1.81-.335 2.548a1.141 1.141 0 0 1-.269.335c-.067 0-.268-.134-.402-.503m-6.239-2.616c-.637-.067-1.81-.57-2.985-1.778a9.147 9.147 0 0 1-2.348-4.327c1.98.201 3.79 1.308 4.964 3.052.84 1.241 1.073 2.45.872 2.92 0 .066-.067.166-.335.166-.034 0-.1 0-.168-.033m13.081-10.7c-.737 1.04-.905 2.75-.503 5.132.168 1.207.503 2.616.973 4.192a8.33 8.33 0 0 0-.939-.436c-1.442-.603-2.784-.838-4.025-.67a16.077 16.077 0 0 0-3.824-6.206c-2.012-2.012-4.36-3.086-6.809-3.086-1.979 0-3.555.604-4.495 1.745-.57.704-1.207 2.012-.805 4.092a11.08 11.08 0 0 0 2.92 5.568c1.307 1.341 2.917 2.247 4.225 2.381 1.207.134 2.147-.369 2.583-1.375.503-1.24.1-3.086-1.074-4.83-.77-1.107-1.777-2.08-2.952-2.75-1.14-.705-2.38-1.074-3.689-1.174.57-1.309 1.98-1.644 3.287-1.644 1.912 0 3.723.84 5.333 2.448 1.41 1.41 2.348 3.053 3.421 5.468-.335.201-.67.436-.972.704-.705.637-1.208 1.376-1.443 2.214-.2.738-.2 1.476.034 2.18.37 1.04 1.174 1.778 2.113 1.88.906.066 1.711-.437 2.248-1.41.536-1.006.737-2.247.57-3.656l-.1-.57c.804-.067 1.676.134 2.682.536a13.01 13.01 0 0 1 2.885 1.744c.37.302.872.336 1.241.067.37-.268.537-.737.37-1.173-2.617-7.548-1.98-9.66-1.61-10.197.133-.168.301-.336.804-.336.805 0 1.98.906 3.22 2.45a21.98 21.98 0 0 1 1.845 2.65c.268.502.905.67 1.375.401.47-.268.671-.905.37-1.375a21.956 21.956 0 0 0-2.013-2.952c-.705-.872-1.409-1.576-2.08-2.113-.939-.704-1.845-1.073-2.717-1.073-1.308 0-2.046.637-2.449 1.174" fill="#e30024"/><path d="M63.383 74.206c-.101-.268-.302-1.24.838-2.28l.168-.1c.1.904.067 1.81-.335 2.548a1.16 1.16 0 0 1-.27.335c-.066 0-.267-.134-.401-.503m6.842-13.316c-.738 1.04-.905 2.75-.503 5.132.168 1.207.503 2.616.973 4.192a8.33 8.33 0 0 0-.94-.436c-1.441-.603-2.783-.838-4.024-.67-.101-.302-.201-.604-.336-.906-.905-2.08-2.012-3.656-2.08-3.723a.949.949 0 0 0-1.375-.235.986.986 0 0 0-.234 1.41c0 .032 1.04 1.508 1.844 3.353l.302.738a6.484 6.484 0 0 0-.972.704c-.705.637-1.208 1.376-1.443 2.214-.201.738-.201 1.476.034 2.18.369 1.04 1.174 1.778 2.113 1.88.906.066 1.71-.437 2.247-1.41.537-1.006.738-2.247.57-3.656l-.1-.57c.805-.067 1.677.134 2.683.536a13.01 13.01 0 0 1 2.885 1.744c.369.302.872.336 1.24.067.37-.268.538-.737.37-1.173-2.616-7.548-1.98-9.66-1.61-10.197.134-.168.302-.336.805-.336.805 0 1.979.906 3.22 2.45a22.118 22.118 0 0 1 1.845 2.65c.268.502.906.67 1.375.401.47-.268.67-.905.369-1.375a21.956 21.956 0 0 0-2.012-2.952c-.705-.872-1.41-1.576-2.08-2.113-.94-.704-1.845-1.073-2.717-1.073-1.308 0-2.046.637-2.45 1.174" fill="#e30024"/><path d="M88.115 72.326c0-.065-.916-5.04-2.389-9.95-.884-2.913-1.768-5.237-2.684-6.939-1.276-2.42-2.586-3.6-4.059-3.6-.523 0-.982.458-.982.982 0 .557.46.982.982.982.361 0 .721.295.982.556.426.46.884 1.113 1.343 1.997.687 1.244 1.374 2.913 2.03 4.975-.95-.85-1.867-1.276-2.783-1.276-1.277 0-1.997.621-2.39 1.145-.72 1.014-.884 2.684-.524 5.008.295 1.8.917 4.058 1.833 6.742.197.524.753.785 1.277.622a1.04 1.04 0 0 0 .59-1.277c-2.554-7.364-1.965-9.426-1.572-9.95.131-.163.295-.327.786-.327.753 0 1.767.851 2.814 2.324a20.86 20.86 0 0 1 1.506 2.586l.098.196c.785 3.11 1.211 5.5 1.211 5.531.098.557.622.917 1.146.82a.97.97 0 0 0 .785-1.147" fill="#e30024"/><path d="M113.63 62.165c1.107 1.073 2.214 4.058 2.818 7.648.067.268.1.57.134.838-1.275-2.046-2.315-4.025-2.952-5.635-.335-.906-.536-1.677-.637-2.281-.067-.604.033-.805.067-.838.2-.101.469.167.57.268m-18.776-5.493a.7.7 0 0 1 .75.48c.626 1.952 2.672 8.59 3.402 12.124.536 2.448.839 4.595.872 6.373.033 2.046-.235 3.623-.84 4.528-.401.604-.938.906-1.676.973-2.884.2-5.03-1.866-6.406-3.522-3.458-4.16-3.022-.633-1.61 1.207 1.073 1.409 2.28 2.516 3.589 3.254a7.914 7.914 0 0 0 4.56 1.073c1.377-.1 2.483-.771 3.255-1.878.839-1.308 1.208-3.153 1.14-5.702a29.76 29.76 0 0 0-.234-2.818l.302.57c1.81 3.522 3.622 6.273 5.366 8.185 2.315 2.549 4.629 3.689 6.843 3.32 1.308-.234 3.086-1.174 4.058-4.36.303-.973.504-2.046.604-3.287l.503.604c1.98 2.314 3.958 4.192 5.736 5.4 2.214 1.476 4.159 2.046 5.803 1.61.906-.235 1.61-.84 2.012-1.711.336-.704.47-1.61.47-2.75-.034-1.946-.503-4.461-1.04-7.145-.771-3.924-1.644-8.385-1.241-12.075.436-4.025 2.247-6.373 5.77-7.38 3.622-1.073 7.144-.804 10.532.705 2.549 1.174 4.025 2.684 4.058 2.684.369.402 1.006.402 1.409.033.403-.402.403-1.04.034-1.442-.068-.067-1.745-1.744-4.596-3.053a16.946 16.946 0 0 0-5.233-1.475 17.165 17.165 0 0 0-1.878-.101c-1.61 0-3.253.235-4.897.704-2.281.67-4.06 1.845-5.266 3.556-1.073 1.476-1.711 3.287-1.946 5.568-.402 3.99.47 8.587 1.275 12.679.503 2.583.973 4.998 1.006 6.775.034 2.214-.671 2.415-.972 2.482-1.443.369-3.623-.67-6.172-2.918-1.711-1.543-3.555-3.622-5.3-5.937-.033-1.475-.201-3.018-.436-4.528-.335-1.912-.805-3.69-1.341-5.2-.638-1.643-1.342-2.85-2.08-3.588-1.107-1.04-2.147-.872-2.684-.704-.47.168-1.241.637-1.375 1.979-.067.704.068 1.576.403 2.616.537 1.778 1.576 3.958 3.019 6.339a52.569 52.569 0 0 0 2.515 3.79c0 2.013-.201 3.79-.604 5.2-.536 1.744-1.375 2.75-2.481 2.918-1.477.268-3.187-.637-5.032-2.683-1.61-1.778-3.321-4.361-5.065-7.715-2.985-5.77-5.871-14.155-5.944-15.344l-.918-.994-2.02.58z"/><path d="M143.88 60.756c-.468.604-.737 1.409-.804 2.449a11.384 11.384 0 0 0-1.845-1.946c-.771-.637-1.543-1.073-2.314-1.308-.805-.268-1.577-.268-2.248-.034-.94.336-1.61 1.14-1.912 2.214-.268 1.006-.201 2.214.168 3.589a12.24 12.24 0 0 0 3.589 5.803c1.61 1.476 3.32 2.18 4.595 1.878.504-.134 2.147-.771 1.51-3.555-.101-.537-.637-.906-1.174-.772-.537.1-.906.638-.771 1.175.133.704.067 1.006.033 1.106-.033.067-.033.1-.101.1-.37.102-1.442-.2-2.75-1.408-1.375-1.274-2.482-3.052-2.985-4.863-.47-1.745-.303-3.086.468-3.355.503-.167 1.41 0 2.617.973.972.839 2.448 2.482 3.89 5.669a.997.997 0 0 0 1.241.536c.503-.201.772-.704.638-1.207-.906-3.354-.738-5.2-.268-5.803.1-.134.268-.268.603-.268.805 0 2.013.905 3.288 2.448 1.106 1.342 1.878 2.65 1.878 2.684.268.469.906.637 1.375.369.47-.302.637-.906.37-1.376a22.363 22.363 0 0 0-2.08-2.951 13.873 13.873 0 0 0-2.114-2.113c-.939-.705-1.845-1.074-2.717-1.074-.905 0-1.677.369-2.18 1.04" fill="#e30024"/><path d="M162.226 78.164l-5.568-1.14c-1.074-2.684-1.912-4.965-2.516-6.977-.637-2.046-1.04-3.757-1.174-5.098-.2-1.812.068-2.55.27-2.852.1-.167.301-.369.804-.369.805 0 1.98.906 3.22 2.45a22.118 22.118 0 0 1 1.845 2.65c.268.502.872.67 1.375.401.47-.268.637-.905.37-1.375a22.018 22.018 0 0 0-2.014-2.952c-.704-.872-1.409-1.576-2.08-2.113-.938-.704-1.878-1.073-2.716-1.073-1.375 0-2.114.704-2.516 1.274-1.073 1.644-.839 4.696.671 9.661.604 1.945 1.342 3.958 2.08 5.903l-1.074-.235h-.2c-.47 0-.873.336-.974.805-.1.537.235 1.074.772 1.174l2.381.503c.57 1.376 1.141 2.65 1.61 3.757.235.503.805.738 1.308.537.537-.235.772-.839.537-1.342l-1.073-2.482 4.26.872c.536.101 1.073-.268 1.207-.805a1.019 1.019 0 0 0-.805-1.174" fill="#e30024"/><path d="M159.575 61.56c-.57.705-1.207 2.013-.805 4.093a11.405 11.405 0 0 0 2.918 5.635c1.376 1.443 3.02 2.315 4.361 2.315 1.14 0 2.046-.772 2.348-2.08.167-.671.101-1.476-.1-2.18-.269-.84-.773-1.476-1.41-1.778-.503-.235-1.107-.033-1.34.47a1.004 1.004 0 0 0 .468 1.342c.268.133.571.972.403 1.71-.1.503-.302.503-.369.503-.604 0-1.71-.436-2.918-1.677a9.441 9.441 0 0 1-2.382-4.63c-.2-1.072-.067-1.877.403-2.447.536-.638 1.576-1.007 2.918-1.007 1.912 0 3.723.839 5.366 2.449 1.275 1.275 1.946 2.549 1.946 2.549.268.503.872.705 1.375.436.47-.268.671-.872.403-1.341-.034-.068-.805-1.543-2.28-3.02-2.014-2.012-4.362-3.085-6.81-3.085-1.979 0-3.556.604-4.495 1.744" fill="#e30024"/><path d="M170.073 59.783c-.503.201-.738.704-.57 1.208.033.134 4.192 13.45 7.748 21.567.235.503.805.738 1.308.537.537-.235.77-.839.537-1.342-1.711-3.891-3.556-9.023-5.032-13.282.839 1.173 1.61 2.146 2.315 2.918 1.34 1.475 2.448 2.18 3.454 2.18.806 0 1.242-.369 1.477-.671.77-1.006.369-2.583-.27-5.232a15.944 15.944 0 0 1-.334-1.342c-.336-1.308-.537-2.281-.638-3.086-.1-.973.034-1.275.1-1.375.102-.101.403-.134.57-.134.773 0 1.947.872 3.22 2.415 1.075 1.341 1.846 2.683 1.846 2.716.268.47.872.638 1.375.37.47-.269.638-.873.369-1.376a21.8 21.8 0 0 0-2.012-2.951c-.705-.873-1.41-1.577-2.08-2.08-.94-.738-1.878-1.107-2.717-1.107-.94 0-1.677.302-2.147.906-1.04 1.308-.47 3.555.135 6.171l.369 1.376c.234.972.436 1.777.536 2.448.1.47.1.772.1.906-.368-.101-1.777-.805-4.862-5.468-1.946-2.884-3.522-5.802-3.522-5.836-.202-.335-.537-.537-.906-.537a.679.679 0 0 0-.37.101" fill="#e30024"/></g></svg>