<svg xmlns="http://www.w3.org/2000/svg" preserveAspectRatio="xMidYMid" width="56.188" height="49.66"><path d="M45.126 49.67c6.226 0 11.068-4.842 11.068-10.722s-4.842-10.722-10.722-10.722c-1.73 0-3.286.519-3.632.519 0-12.279 9.339-19.888 11.241-21.444 1.383-1.211 1.729-2.94.692-3.978L51.352.902c-1.211-1.211-2.594-1.211-4.151 0-5.015 4.669-15.045 16.083-15.045 31.647 0 13.316 7.09 17.121 12.97 17.121zm-32.339 0c6.226 0 11.241-4.842 11.241-10.722s-5.015-10.722-10.722-10.722c-1.903 0-3.286.519-3.805.519.173-12.279 9.512-19.888 11.241-21.444 1.556-1.211 1.729-2.94.865-3.978L19.013.902c-1.038-1.211-2.422-1.211-3.978 0C10.02 5.571-.01 16.985-.01 32.549c0 13.316 6.917 17.121 12.797 17.121z" fill="#333" opacity=".12" fill-rule="evenodd"/></svg>